<svg xmlns="http://www.w3.org/2000/svg" viewBox="0 0 512 512">
  <defs>
    <linearGradient id="gradient" x1="0" y1="0" x2="1" y2="1" gradientUnits="userSpaceOnUse">
      <stop offset="0%" stop-color="#A020F0" />
      <stop offset="100%" stop-color="#222224" />
    </linearGradient>
    <filter id="glow" x="-50%" y="-50%" width="200%" height="200%">
      <feGaussianBlur stdDeviation="6" result="coloredBlur" />
      <feMerge>
        <feMergeNode in="coloredBlur" />
        <feMergeNode in="SourceGraphic" />
      </feMerge>
    </filter>
  </defs>

  <!-- Background with rounded corners -->
  <rect width="512" height="512" fill="url(#gradient)" rx="128" />

  <!-- Outer decorative elements -->
  <circle cx="256" cy="256" r="180" fill="none" stroke="#FFFFFF" stroke-width="16" opacity="0.4" />
  <circle cx="256" cy="256" r="150" fill="none" stroke="#FFFFFF" stroke-width="8" opacity="0.6" />

  <!-- Main controller shape -->
  <g filter="url(#glow)">
    <path d="M200 300 h112 a24 24 0 0 0 24 -24 v-56 a24 24 0 0 0 -24 -24 h-112 a24 24 0 0 0 -24 24 v56 a24 24 0 0 0 24 24 z" fill="#FFFFFF" />
    <rect x="220" y="240" width="24" height="16" fill="#A020F0" />
    <rect x="268" y="240" width="24" height="16" fill="#A020F0" />
    <circle cx="246" cy="272" r="12" fill="#FF1493" />
    <circle cx="290" cy="272" r="12" fill="#FF1493" />
  </g>

  <!-- Chat bubble -->
  <path d="M360 160 q-40 0 -40 40 v60 q0 40 40 40 h40 l30 30 v-70 q40 0 40 -40 v-60 q0 -40 -40 -40 z" fill="#FFFFFF" stroke="#FF1493" stroke-width="8" />
  <circle cx="370" cy="190" r="10" fill="#FF1493" />
  <circle cx="390" cy="190" r="10" fill="#FF1493" />
  <circle cx="410" cy="190" r="10" fill="#FF1493" />

  <!-- Decorative accents -->
  <circle cx="120" cy="120" r="10" fill="#FFFFFF" />
  <circle cx="400" cy="120" r="10" fill="#FFFFFF" />
  <circle cx="120" cy="400" r="10" fill="#FFFFFF" />
  <circle cx="400" cy="400" r="10" fill="#FFFFFF" />
</svg>
